<svg width="21" height="19" viewBox="0 0 21 19" fill="none" xmlns="http://www.w3.org/2000/svg">
<path d="M18.7914 10.0203C19.0355 9.81105 19.1575 9.70643 19.2023 9.58193C19.2415 9.47265 19.2415 9.35313 19.2023 9.24385C19.1575 9.11935 19.0355 9.01473 18.7914 8.80548L10.3206 1.54486C9.9004 1.18466 9.69029 1.00457 9.5124 1.00015C9.3578 0.996319 9.21012 1.06424 9.11242 1.18412C9 1.32205 9 1.59879 9 2.15226V6.44752C6.86532 6.82098 4.91159 7.90265 3.45971 9.52676C1.87682 11.2974 1.00123 13.5888 1 15.9639V16.5759C2.04934 15.3118 3.35951 14.2894 4.84076 13.5788C6.1467 12.9523 7.55842 12.5812 9 12.4834V16.6735C9 17.227 9 17.5037 9.11242 17.6417C9.21012 17.7615 9.3578 17.8295 9.5124 17.8256C9.69029 17.8212 9.9004 17.6411 10.3206 17.2809L18.7914 10.0203Z" stroke="black" stroke-width="2" stroke-linecap="round" stroke-linejoin="round"/>
</svg>
